<svg width="178" height="52" viewBox="0 0 178 52" fill="none" xmlns="http://www.w3.org/2000/svg">
<path fill-rule="evenodd" clip-rule="evenodd" d="M40.1771 32.4483H65.1514C66.8004 32.4483 68.4381 32.0536 69.4 31.3842C70.5056 30.6136 71.1347 29.4171 71.3818 28.0745C71.6352 26.6982 71.6566 25.784 71.6516 24.3865C71.6503 23.9144 71.7033 23.6159 71.7033 23.1188L71.755 14.6524C71.755 12.8514 71.7033 11.2078 71.7033 9.43062C71.7033 8.94104 71.6491 8.59884 71.6516 8.16421C71.6541 7.72459 71.6541 7.28372 71.6541 6.8441C71.6541 6.5506 71.6062 6.49815 71.5999 6.23837C71.5848 5.64388 71.5028 4.94199 71.3931 4.41494C71.2482 3.71804 71.0099 3.02739 70.6972 2.46787C69.6269 0.55702 67.282 0 65.154 0H40.1796C38.6882 0 36.8211 0.365935 35.7193 1.26016C33.8547 2.77136 33.7311 5.48277 33.7311 7.80827C33.7311 8.79242 33.6795 9.66417 33.6795 10.5971C33.6795 12.4555 33.6429 14.4588 33.6429 16.2248C33.6429 17.9907 33.6795 19.994 33.6795 21.8524C33.6795 22.3757 33.7337 22.7466 33.7311 23.2212C33.7236 24.5626 33.7173 26.0563 33.8749 27.3377C34.3186 30.9471 36.516 32.4495 40.1796 32.4495L40.1771 32.4483Z" fill="#FEFEFE"/>
<path fill-rule="evenodd" clip-rule="evenodd" d="M164.18 0.455857V31.9912C164.18 32.1086 164.216 32.1435 164.334 32.1435H168.531V20.6859H170.271C170.451 20.6859 170.461 20.9332 170.548 21.2729C170.615 21.5389 170.669 21.7562 170.732 22.0035L173.393 32.1435H178C177.976 31.86 175.216 22.4019 174.947 21.479C174.868 21.213 174.802 20.9719 174.73 20.7296C174.663 20.5011 174.539 20.1614 174.519 19.9241C175.051 19.8017 175.793 19.1173 176.135 18.6864C177.823 16.5645 177.539 12.5866 177.539 9.58174C177.539 9.22705 177.537 8.8711 177.54 8.51641C177.542 8.12175 177.487 7.92067 177.488 7.50353C177.499 4.5773 176.878 1.5674 173.618 0.690655C172.474 0.383419 171.142 0.303488 169.71 0.303488H164.337C164.218 0.303488 164.183 0.338458 164.183 0.455857H164.18ZM169.913 16.8829H168.531V4.15767C171.418 4.15767 173.146 3.87541 173.137 7.25C173.136 7.64841 173.19 7.86822 173.19 8.21167V12.7777C173.19 13.1274 173.136 13.3785 173.137 13.7894C173.144 16.1061 172.424 16.8817 169.913 16.8817V16.8829Z" fill="#FEFEFE"/>
<path fill-rule="evenodd" clip-rule="evenodd" d="M146.626 32.1435H151.079C151.132 31.5141 151.247 30.7997 151.282 30.1652L151.466 28.1682C151.515 27.8235 151.51 27.53 151.547 27.1841L151.846 24.1842H156.503L156.869 28.182C156.933 28.7902 157.038 29.5345 157.066 30.1665C157.094 30.796 157.219 31.5253 157.27 32.1435H161.058C161.779 32.146 161.75 32.2734 161.656 31.6015C161.346 29.3759 161.131 27.1566 160.823 24.9235C160.716 24.1467 160.63 23.4136 160.546 22.663C160.377 21.173 160.174 19.6593 159.992 18.1918C159.806 16.6819 159.653 15.2281 159.443 13.7182C159.137 11.5301 158.917 9.25202 158.617 7.03269C158.512 6.2621 158.414 5.53897 158.341 4.77089L157.927 1.42877C157.889 1.12653 157.79 0.609475 157.784 0.303488H150.669C150.458 0.303488 150.522 0.48708 150.499 0.693152L149.579 8.14673C149.23 10.7645 148.936 13.5171 148.587 16.1373C148.408 17.4849 148.277 18.7663 148.095 20.1114C147.92 21.4103 147.748 22.8053 147.598 24.1317L146.626 32.1423V32.1435ZM154.711 4.15767C154.711 4.39246 154.746 4.90077 154.784 5.15056L155.253 11.2778C155.299 11.58 155.318 12.0221 155.325 12.3219C155.331 12.5679 155.365 12.5542 155.377 12.7777C155.465 14.5762 155.793 16.6057 155.89 18.3529L156.093 20.3824H152.254L152.927 13.3935C153.094 11.8261 153.2 9.86025 153.326 8.26163L153.532 5.17054C153.537 4.94699 153.59 4.35 153.636 4.15767H154.711Z" fill="#FEFEFE"/>
<path fill-rule="evenodd" clip-rule="evenodd" d="M0.00252139 32.1435H4.4553C4.50824 31.5128 4.60154 30.7935 4.65575 30.1615C4.75786 28.9513 4.95705 27.2827 5.02009 26.1624C5.05539 25.528 5.17011 24.8136 5.22306 24.1841H9.88006C9.88006 24.5126 9.93301 24.8885 9.96831 25.1621L10.6478 32.1448H14.435C15.1548 32.1473 15.1246 32.2822 15.0338 31.6015L13.3684 18.1931C13.1818 16.6869 13.0305 15.2294 12.8187 13.7182C12.6069 12.2082 12.4746 10.7607 12.2615 9.25077C12.0497 7.73958 11.8984 6.28208 11.7119 4.77588L11.1584 0.304737H4.04431C3.8136 0.304737 3.87916 0.705642 3.81108 1.18898L3.43918 4.16766C3.27402 5.50775 3.13535 6.80039 2.94624 8.14173C2.40667 11.9859 1.98938 16.2148 1.46871 20.1139C1.03377 23.3761 0.684557 26.8643 0.233229 30.0953L0 32.1448L0.00252139 32.1435ZM7.11662 4.15767H8.08862C8.08862 4.82209 8.2336 5.53648 8.24242 6.18592C8.2462 6.4357 8.27142 6.91904 8.30672 7.1863L9.47034 20.3824H5.63152L6.02612 16.3621C6.11311 15.679 6.11941 15.0495 6.21649 14.3701L6.39929 12.3206C6.49132 10.411 6.7069 8.08053 6.85692 6.13221L6.96156 4.56232C6.95903 4.3475 6.90609 4.15767 7.11662 4.15767Z" fill="#FEFEFE"/>
<path fill-rule="evenodd" clip-rule="evenodd" d="M125.439 32.1435H129.636C129.753 32.1435 129.79 32.1086 129.79 31.9912V0.455857C129.79 0.338458 129.754 0.303488 129.636 0.303488H125.439V32.1435Z" fill="#FEFEFE"/>
<path fill-rule="evenodd" clip-rule="evenodd" d="M133.474 32.1435H144.989V28.2906H137.823V0.304737H133.474V32.1435Z" fill="#FEFEFE"/>
<path fill-rule="evenodd" clip-rule="evenodd" d="M91.3033 13.1312L91.4041 26.5683C91.4407 27.7948 91.8151 29.2835 92.5211 30.3289C92.893 30.8784 93.2195 31.1481 93.7793 31.5153C94.6466 32.0836 96.1128 32.3896 97.6433 32.447H98.7061C100.272 32.3883 101.775 32.0723 102.644 31.5141C102.882 31.3617 103.004 31.2893 103.216 31.1169C103.613 30.7947 103.857 30.4862 104.14 30.0541C104.65 29.2735 104.935 28.2294 105.08 27.0817C105.289 25.4281 105.173 22.1546 105.173 20.4311H100.823V26.11C100.823 27.9584 100.127 28.8988 98.2636 28.8988C95.451 28.8988 95.6918 26.8194 95.7056 24.4364C95.7081 24.0805 95.6527 23.9543 95.6514 23.6271L95.6539 20.9882C95.5228 18.579 95.6022 15.0133 95.6022 12.5217L95.6527 8.92106C95.6502 8.50392 95.7044 8.21791 95.7044 7.75581C95.7044 7.35616 95.6905 6.93402 95.7031 6.53686L95.7838 5.40034C96.0737 3.83045 97.2437 3.4158 98.7628 3.61064C99.0805 3.65185 99.4373 3.7655 99.6869 3.91163C100.602 4.44742 100.669 5.4478 100.669 6.58932L100.617 11.8111H104.968C104.968 11.3252 105.02 11.0367 105.02 10.5434C105.02 8.41025 105.181 5.76253 104.616 3.84419C104.412 3.14854 104.183 2.68518 103.802 2.11568C103.527 1.70353 103.315 1.54866 102.985 1.25267C102.607 0.912963 101.763 0.5795 101.284 0.403402C99.8004 -0.144875 96.6158 -0.139879 95.011 0.47584C94.2382 0.771835 93.4666 1.19272 92.9498 1.83092C92.8855 1.9096 92.8464 1.94083 92.7821 2.01951C91.8378 3.16352 91.4256 4.75715 91.4104 6.28833C91.4079 6.56934 91.3587 6.61055 91.355 6.89281L91.3058 13.1312H91.3033Z" fill="#FEFEFE"/>
<path fill-rule="evenodd" clip-rule="evenodd" d="M74.6193 7.40237C74.6193 10.2062 74.3696 13.4996 75.9077 15.7589C76.5658 16.7256 77.9412 17.4062 79.0493 17.716C79.8284 17.9345 80.5672 18.1156 81.364 18.313C82.1532 18.5078 82.8982 18.6652 83.3344 19.2509C84.2005 20.4112 84.1375 22.8853 84.1375 24.4377C84.1375 26.0063 84.1942 28.0233 82.8932 28.6303C82.138 28.9825 80.6176 28.9538 79.8978 28.4854C79.4868 28.2182 79.2939 27.9084 79.1275 27.4239C78.8527 26.6245 78.8691 24.1542 78.8665 23.1201L78.917 21.2941C78.9157 20.9357 78.9699 20.7683 78.9699 20.3824H74.9786C74.7428 20.3824 74.8374 20.6485 74.821 20.8857L74.7201 22.2059C74.6697 23.8957 74.6861 26.6783 75.0416 28.177C75.9115 31.8488 78.4354 32.4483 81.9893 32.4483C83.8034 32.4483 86.1206 31.9075 87.0976 30.4625C87.6422 29.6569 87.9372 29.0312 88.144 28.0009C88.5172 26.1362 88.4377 24.0755 88.4377 22.1072C88.4377 20.2613 88.1099 18.569 87.4834 17.3238C85.7008 13.7831 80.4916 14.8872 79.5322 13.0338C79.0304 12.0658 78.9863 11.0929 78.9724 9.98764C78.9687 9.70039 78.9182 9.63669 78.917 9.33195C78.9157 8.00185 78.8401 5.69134 79.2763 4.71593C79.8499 3.43329 81.7018 3.3696 82.6486 3.70805L83.279 4.04651C83.5992 4.28131 83.8198 4.65723 83.9408 5.06438C84.2409 6.07851 84.0354 10.401 84.0354 11.8148H88.2322C88.2322 11.1292 88.2839 10.6283 88.2839 9.93893C88.2839 7.25999 88.5424 3.69182 86.8127 1.76348C85.3553 0.13863 83.1781 0.00124892 81.0677 0.00124892C79.9936 0.00124892 78.8867 0.19733 78.0673 0.47584C77.1961 0.771835 76.5078 1.23144 75.9934 1.86839C75.7299 2.19436 75.6745 2.35547 75.5068 2.65271C74.7794 3.93661 74.6205 5.85495 74.6205 7.40237H74.6193Z" fill="#FEFEFE"/>
<path fill-rule="evenodd" clip-rule="evenodd" d="M16.9929 7.14884C16.9929 9.86899 16.7219 13.3298 18.1086 15.5254C19.9782 18.4866 24.5432 17.706 25.7535 19.3084C26.1077 19.7767 26.3233 20.7696 26.4027 21.5052L26.4607 22.8665C26.4582 23.541 26.5717 24.4127 26.4746 25.1108C26.4342 25.4031 26.4859 25.7078 26.4532 26.0026C26.2615 27.6986 26.114 28.8276 23.9469 28.8789C22.0912 28.9226 21.3108 27.9322 21.2906 26.1637C21.2742 24.7624 21.1734 23.1963 21.2893 21.7987C21.3095 21.5564 21.2906 21.2392 21.2906 20.9894C21.2906 20.6834 21.4268 20.3824 21.1898 20.3824H17.1984C17.1984 20.9719 17.0975 21.6239 17.0938 21.9523C17.0673 24.0755 16.9551 27.1616 17.651 29.01C18.207 30.4875 19.0441 31.4779 20.5821 31.9874C21.3599 32.2447 22.3282 32.4021 23.3304 32.4495H24.5999C25.6627 32.3996 26.6889 32.2197 27.492 31.9C31.0849 30.4687 30.8101 26.2486 30.8101 22.4619C30.8101 20.0889 30.4281 17.345 28.7476 15.9363C26.2804 13.868 22.6244 14.8097 21.7798 12.8002C21.1532 11.3078 21.2906 9.09716 21.2906 7.35241C21.2906 7.10637 21.2717 6.8466 21.3045 6.60555C21.3335 6.39199 21.3209 6.09849 21.3549 5.84371C21.4192 5.35289 21.5049 5.00194 21.6991 4.61352C21.8743 4.26382 22.1088 3.98906 22.4832 3.81796C23.4804 3.36085 25.2568 3.43329 25.9791 4.37997C26.6133 5.21051 26.4595 7.44608 26.4595 8.71998C26.4595 9.81029 26.4078 10.7245 26.4078 11.8123H30.6046C30.6046 8.64879 31.1417 4.1814 29.2393 1.85965C28.7363 1.24518 28.082 0.774332 27.2474 0.48708C26.4683 0.218562 25.5089 0.0512059 24.5029 0H23.1917C21.7735 0.0724376 20.3766 0.383419 19.3617 0.979156C18.9558 1.21645 18.7125 1.47248 18.4364 1.78596C17.3963 2.9612 16.9916 4.95323 16.9916 7.14884H16.9929Z" fill="#FEFEFE"/>
<path fill-rule="evenodd" clip-rule="evenodd" d="M108.345 0.455857V31.9912C108.345 32.1086 108.381 32.1435 108.499 32.1435H112.696V17.9483H117.353V32.1435H121.704V0.304737H117.353V14.0953H112.696V0.304737H108.499C108.381 0.304737 108.345 0.339707 108.345 0.457106V0.455857Z" fill="#FEFEFE"/>
<path d="M63.4206 51.7804L62.4304 49.1743H57.9967L57.0213 51.7804H55.1443L59.2234 41.3998H61.2777L65.3567 51.7804H63.4206ZM60.2136 43.3032L58.6174 47.5491H61.8097L60.2136 43.3032Z" fill="#FEFEFE"/>
<path d="M75.6085 51.7804H74.1749L74.0419 50.4627C73.7857 50.8922 73.3817 51.2582 72.83 51.5608C72.2782 51.8536 71.6132 52 70.8348 52C69.4062 52 68.1893 51.512 67.1844 50.5359C66.1794 49.55 65.6769 48.2323 65.6769 46.5828C65.6769 45.4896 65.9281 44.5233 66.4306 43.6838C66.943 42.8444 67.5932 42.2197 68.3815 41.8098C69.1697 41.3901 70.0269 41.1802 70.953 41.1802C72.1649 41.1802 73.1798 41.4779 73.9975 42.0733C74.8252 42.6687 75.3868 43.4252 75.6824 44.3427L74.0123 44.9723C73.8251 44.3476 73.4655 43.8302 72.9334 43.4203C72.4014 43.0103 71.7412 42.8054 70.953 42.8054C70.017 42.8054 69.2042 43.1324 68.5145 43.7863C67.8248 44.4403 67.4799 45.3724 67.4799 46.5828C67.4799 47.7834 67.8149 48.7204 68.4849 49.3939C69.1549 50.0576 69.9727 50.3895 70.9383 50.3895C71.8841 50.3895 72.6034 50.1455 73.096 49.6574C73.5985 49.1596 73.8793 48.6277 73.9384 48.0615H70.4801V46.5242H75.6085V51.7804Z" fill="#FEFEFE"/>
<path d="M84.2308 51.7804H77.7575V41.3998H84.2308V43.0396H79.531V45.7922H83.7874V47.388H79.531V50.1406H84.2308V51.7804Z" fill="#FEFEFE"/>
<path d="M95.153 51.7804H93.3056L88.1329 43.9181V51.7804H86.3595V41.3998H88.6207L93.3795 48.7643V41.3998H95.153V51.7804Z" fill="#FEFEFE"/>
<path d="M102.316 52C100.848 52 99.5964 51.5071 98.5618 50.5212C97.5371 49.5354 97.0248 48.2275 97.0248 46.5974C97.0248 44.9771 97.547 43.6692 98.5914 42.6736C99.6358 41.678 100.872 41.1802 102.301 41.1802C103.562 41.1802 104.597 41.4974 105.405 42.1319C106.222 42.7663 106.759 43.5716 107.015 44.5477L105.345 45.104C105.178 44.4305 104.838 43.8839 104.326 43.4642C103.813 43.0445 103.138 42.8347 102.301 42.8347C101.365 42.8347 100.552 43.1665 99.8624 43.8302C99.1825 44.4842 98.8426 45.4066 98.8426 46.5974C98.8426 47.759 99.1825 48.6716 99.8624 49.3353C100.542 49.9893 101.36 50.3163 102.316 50.3163C103.133 50.3163 103.808 50.0967 104.34 49.6574C104.873 49.2182 105.237 48.6765 105.434 48.0323L107.06 48.5593C106.804 49.5257 106.262 50.3407 105.434 51.0044C104.616 51.6681 103.577 52 102.316 52Z" fill="#FEFEFE"/>
<path d="M110.998 47.388L107.333 41.3998H109.432L111.944 45.7482L114.471 41.3998H116.467L112.772 47.388V51.7804H110.998V47.388Z" fill="#FEFEFE"/>
</svg>
